<svg width="18" height="16" viewBox="0 0 18 16" fill="none" xmlns="http://www.w3.org/2000/svg">
<path d="M16.9035 7.90624C16.847 4.04061 13.4706 0.949988 9.35969 0.999988C5.24882 1.04999 1.96211 4.22811 2.01528 8.09374C2.07178 11.9594 5.44822 15.05 9.55909 15C13.67 14.9469 16.96 11.7719 16.9035 7.90624ZM9.45939 3.49686C10.0476 3.49686 10.5228 3.94374 10.5228 4.49686C10.5228 5.04999 10.0476 5.49686 9.45939 5.49686C8.87118 5.49686 8.39595 5.04999 8.39595 4.49686C8.39595 3.94374 8.87118 3.49686 9.45939 3.49686ZM10.9216 12.3437H7.99716V12H8.72828V6.99999H7.99716V6.62499H10.1905V12H10.9216V12.3437Z" fill="white"/>
</svg>
