<svg width="20" height="11" viewBox="0 0 20 11" fill="none" xmlns="http://www.w3.org/2000/svg">
<path d="M14.2527 0.21143C14.1857 0.277878 14.1325 0.356933 14.0962 0.444035C14.0599 0.531137 14.0412 0.624562 14.0412 0.718921C14.0412 0.81328 14.0599 0.906706 14.0962 0.993808C14.1325 1.08091 14.1857 1.15997 14.2527 1.22641L17.5406 4.51439H0.714777C0.525206 4.51439 0.3434 4.58969 0.209353 4.72374C0.0753066 4.85779 0 5.03959 0 5.22916C0 5.41873 0.0753066 5.60054 0.209353 5.73459C0.3434 5.86863 0.525206 5.94394 0.714777 5.94394H17.5263L14.2527 9.21047C14.1195 9.34439 14.0448 9.52555 14.0448 9.71439C14.0448 9.90322 14.1195 10.0844 14.2527 10.2183C14.3866 10.3514 14.5677 10.4262 14.7566 10.4262C14.9454 10.4262 15.1266 10.3514 15.2605 10.2183L19.8065 5.67232C19.8677 5.61362 19.9163 5.54315 19.9496 5.46515C19.9829 5.38715 20 5.30323 20 5.21844C20 5.13365 19.9829 5.04973 19.9496 4.97173C19.9163 4.89373 19.8677 4.82326 19.8065 4.76456L15.2676 0.21143C15.2012 0.144435 15.1221 0.0912597 15.035 0.0549715C14.9479 0.0186832 14.8545 0 14.7601 0C14.6658 0 14.5724 0.0186832 14.4853 0.0549715C14.3982 0.0912597 14.3191 0.144435 14.2527 0.21143Z" fill="#7E38B7"/>
</svg>
