<svg width="22" height="22" viewBox="0 0 22 22" fill="none" xmlns="http://www.w3.org/2000/svg">
<path d="M1.8335 12.1228V6.64572C1.8335 6.29433 1.97482 5.97732 2.25745 5.69468C2.54009 5.41204 2.85711 5.27072 3.2085 5.27072H7.56266V3.1853C7.56266 2.83391 7.70016 2.5169 7.97516 2.23426C8.25016 1.95162 8.571 1.8103 8.93766 1.8103H13.0627C13.4141 1.8103 13.7311 1.95162 14.0137 2.23426C14.2963 2.5169 14.4377 2.83391 14.4377 3.1853V5.27072H18.7918C19.1585 5.27072 19.4793 5.41204 19.7543 5.69468C20.0293 5.97732 20.1668 6.29433 20.1668 6.64572V12.1228H13.0856V11.4353C13.0856 11.2367 13.0206 11.0725 12.8908 10.9426C12.7609 10.8127 12.5967 10.7478 12.3981 10.7478H9.64808C9.44947 10.7478 9.28523 10.8127 9.15537 10.9426C9.02551 11.0725 8.96058 11.2367 8.96058 11.4353V12.1228H1.8335ZM8.93766 5.27072H13.0627V3.1853H8.93766V5.27072ZM10.3356 13.4978V12.1228H11.7106V13.4978H10.3356ZM3.2085 19.227C2.85711 19.227 2.54009 19.0856 2.25745 18.803C1.97482 18.5204 1.8335 18.2034 1.8335 17.852V13.4978H8.96058V14.1853C8.96058 14.3839 9.02551 14.5481 9.15537 14.678C9.28523 14.8079 9.44947 14.8728 9.64808 14.8728H12.3981C12.5967 14.8728 12.7609 14.8079 12.8908 14.678C13.0206 14.5481 13.0856 14.3839 13.0856 14.1853V13.4978H20.1668V17.852C20.1668 18.2034 20.0293 18.5204 19.7543 18.803C19.4793 19.0856 19.1585 19.227 18.7918 19.227H3.2085Z" fill="#FBFBFB"/>
</svg>
