<svg width="40" height="40" viewBox="0 0 40 40" fill="none" xmlns="http://www.w3.org/2000/svg">
<path fill-rule="evenodd" clip-rule="evenodd" d="M12.5881 7.76393C13.4351 6.07002 15.1664 5 17.0603 5H22.94C24.8338 5 26.5652 6.07002 27.4122 7.76393L28.0695 9.07868C28.3518 9.64333 28.929 10 29.5603 10H31.6668C34.4283 10 36.6668 12.2386 36.6668 15V30C36.6668 32.7615 34.4283 35 31.6668 35H8.3335C5.57208 35 3.3335 32.7615 3.3335 30V15C3.3335 12.2386 5.57208 10 8.3335 10H10.44C11.0713 10 11.6484 9.64333 11.9308 9.07868L12.5881 7.76393ZM15.0002 21.6667C15.0002 18.9052 17.2387 16.6667 20.0002 16.6667C22.7617 16.6667 25.0002 18.9052 25.0002 21.6667C25.0002 24.4282 22.7617 26.6667 20.0002 26.6667C17.2387 26.6667 15.0002 24.4282 15.0002 21.6667ZM20.0002 13.3333C15.3978 13.3333 11.6668 17.0643 11.6668 21.6667C11.6668 26.269 15.3978 30 20.0002 30C24.6025 30 28.3335 26.269 28.3335 21.6667C28.3335 17.0643 24.6025 13.3333 20.0002 13.3333Z" fill="#7E38B7"/>
</svg>
