<svg width="20" height="20" viewBox="0 0 20 20" fill="none" xmlns="http://www.w3.org/2000/svg">
<path d="M2.74577 13.0907C3.07127 13.4161 3.59887 13.416 3.92425 13.0905C4.24963 12.765 4.24955 12.2374 3.92405 11.9121L2.01189 10.0006L4.90245 7.11001C6.64724 5.36523 9.12414 4.65432 11.4945 5.15376C11.9448 5.24864 12.3868 4.96048 12.4817 4.51015C12.5766 4.05981 12.2884 3.61783 11.8381 3.52295C8.92216 2.9086 5.87129 3.78419 3.72394 5.93154L0.244064 9.41142C-0.0813936 9.73687 -0.0813546 10.2646 0.244181 10.59L2.74577 13.0907Z" fill="#B8B8B8"/>
<path d="M19.7566 9.41052L17.255 6.90978C16.9295 6.5844 16.4019 6.58448 16.0765 6.90998C15.7511 7.23547 15.7512 7.76307 16.0767 8.08845L17.9888 9.99995L15.0983 12.8905C13.3535 14.6353 10.8766 15.3462 8.50624 14.8468C8.0559 14.7519 7.61393 15.04 7.51905 15.4904C7.42417 15.9407 7.71232 16.3827 8.16266 16.4776C11.0786 17.0919 14.1294 16.2163 16.2768 14.069L19.7567 10.5891C20.0821 10.2636 20.0821 9.73589 19.7566 9.41052Z" fill="#B8B8B8"/>
<path d="M5.83398 10.0003C5.83398 10.4605 6.20706 10.8335 6.66728 10.8335C7.12749 10.8335 7.50057 10.4605 7.50057 10.0003C7.50057 8.61972 8.61994 7.50034 10.0005 7.50034C10.4607 7.50034 10.8338 7.12727 10.8338 6.66705C10.8338 6.20684 10.4607 5.83376 10.0005 5.83376C7.6995 5.83372 5.83398 7.69924 5.83398 10.0003Z" fill="#B8B8B8"/>
<path d="M12.5002 10.0003C12.5002 11.3808 11.3808 12.5002 10.0003 12.5002C9.54007 12.5002 9.16699 12.8732 9.16699 13.3335C9.16699 13.7937 9.54007 14.1668 10.0003 14.1668C12.3013 14.1668 14.1668 12.3012 14.1668 10.0002C14.1668 9.54 13.7937 9.16693 13.3335 9.16693C12.8733 9.16693 12.5002 9.54004 12.5002 10.0003Z" fill="#B8B8B8"/>
<path d="M19.7552 0.244064C19.4298 -0.0813546 18.9022 -0.0813546 18.5767 0.244064L0.244064 18.5767C-0.0813546 18.9022 -0.0813546 19.4298 0.244064 19.7552C0.569482 20.0806 1.09712 20.0806 1.42254 19.7552L19.7552 1.42254C20.0807 1.09712 20.0807 0.569482 19.7552 0.244064Z" fill="#B8B8B8"/>
</svg>
