<svg width="29" height="30" viewBox="0 0 29 30" fill="none" xmlns="http://www.w3.org/2000/svg">
<g clip-path="url(#clip0_193_732)">
<path d="M14.6992 0.778168C22.5001 0.778168 28.8233 7.10221 28.8233 14.9023C28.8233 22.7032 22.5001 29.0263 14.6992 29.0263C6.89827 29.0263 0.575195 22.7031 0.575195 14.9023C0.575195 7.10221 6.89836 0.778168 14.6992 0.778168Z" fill="#3B5998"/>
<path d="M16.4184 10.5016H18.2387V7.81277H16.0989V7.82247C13.5062 7.9143 12.9749 9.3717 12.928 10.9024H12.9227V12.2451H11.1572V14.8783H12.9227V21.9368H15.5833V14.8783H17.7629L18.1839 12.2451H15.5842V11.4339C15.5842 10.9166 15.9285 10.5016 16.4184 10.5016Z" fill="white"/>
</g>
<defs>
<clipPath id="clip0_193_732">
<rect width="28.2481" height="28.2481" fill="white" transform="translate(0.575195 0.778168)"/>
</clipPath>
</defs>
</svg>
