<svg width="20" height="20" viewBox="0 0 20 20" fill="none" xmlns="http://www.w3.org/2000/svg">
<path d="M12.9938 2.52217C12.2336 1.70146 11.1719 1.24951 10 1.24951C8.82191 1.24951 7.75668 1.69873 7.00004 2.51435C6.23519 3.33896 5.86254 4.45967 5.95004 5.66982C6.12348 8.05732 7.94027 9.99951 10 9.99951C12.0598 9.99951 13.8735 8.05771 14.0496 5.6706C14.1383 4.47139 13.7633 3.35303 12.9938 2.52217Z" fill="#111111"/>
<path d="M16.8752 18.7488H3.12522C2.94525 18.7511 2.76701 18.7133 2.60349 18.6381C2.43997 18.5629 2.29526 18.4522 2.17991 18.314C1.926 18.0105 1.82366 17.596 1.89944 17.1769C2.22913 15.348 3.25804 13.8117 4.87522 12.7332C6.31194 11.7757 8.13186 11.2488 10.0002 11.2488C11.8686 11.2488 13.6885 11.7761 15.1252 12.7332C16.7424 13.8113 17.7713 15.3476 18.101 17.1765C18.1768 17.5957 18.0744 18.0101 17.8205 18.3136C17.7052 18.4519 17.5605 18.5626 17.397 18.6379C17.2335 18.7132 17.0552 18.7511 16.8752 18.7488V18.7488Z" fill="#111111"/>
</svg>
