<svg width="48" height="46" viewBox="0 0 48 46" fill="none" xmlns="http://www.w3.org/2000/svg">
<rect width="48" height="46" rx="8" fill="#A0AEC0" fill-opacity="0.2"/>
<g clip-path="url(#clip0_111_1326)">
<path d="M35.9461 12.029C36.0007 11.8927 36.0141 11.7434 35.9846 11.5996C35.9551 11.4558 35.884 11.3238 35.7802 11.22C35.6764 11.1162 35.5444 11.0451 35.4006 11.0156C35.2568 10.9861 35.1074 10.9995 34.9711 11.054L13.1506 19.7825H13.1491L12.4711 20.0525C12.3427 20.1037 12.231 20.1895 12.1482 20.3002C12.0655 20.411 12.0149 20.5424 12.0022 20.6801C11.9895 20.8178 12.0151 20.9563 12.0761 21.0803C12.1372 21.2044 12.2313 21.3091 12.3481 21.383L12.9631 21.773L12.9646 21.776L20.4571 26.543L25.2241 34.0355L25.2271 34.0385L25.6171 34.6535C25.6913 34.7699 25.7961 34.8636 25.92 34.9243C26.044 34.9849 26.1823 35.0102 26.3197 34.9973C26.4571 34.9845 26.5883 34.9339 26.6988 34.8513C26.8093 34.7687 26.8949 34.6572 26.9461 34.529L35.9461 12.029ZM33.1966 14.864L21.9556 26.105L21.6331 25.598C21.5741 25.505 21.4952 25.4261 21.4021 25.367L20.8951 25.0445L32.1361 13.8035L33.9031 13.097L33.1981 14.864H33.1966Z" fill="black"/>
</g>
<defs>
<clipPath id="clip0_111_1326">
<rect width="24" height="24" fill="white" transform="translate(12 11)"/>
</clipPath>
</defs>
</svg>
