<svg width="28" height="28" viewBox="0 0 28 28" fill="none" xmlns="http://www.w3.org/2000/svg">
<path fill-rule="evenodd" clip-rule="evenodd" d="M21.774 6.23761C22.0993 6.56289 22.0993 7.09027 21.774 7.41555L6.78127 22.4083C6.45599 22.7335 5.92861 22.7335 5.60333 22.4083C5.27806 22.083 5.27806 21.5556 5.60333 21.2303L20.596 6.23761C20.9213 5.91233 21.4487 5.91233 21.774 6.23761Z" fill="#A0AEC0"/>
<path fill-rule="evenodd" clip-rule="evenodd" d="M5.60333 6.23761C5.92861 5.91233 6.45599 5.91233 6.78127 6.23761L21.774 21.2303C22.0993 21.5556 22.0993 22.083 21.774 22.4083C21.4487 22.7335 20.9213 22.7335 20.596 22.4083L5.60333 7.41555C5.27806 7.09027 5.27806 6.56289 5.60333 6.23761Z" fill="#A0AEC0"/>
</svg>
