<svg width="16" height="16" viewBox="0 0 16 16" fill="none" xmlns="http://www.w3.org/2000/svg">
<path d="M15 7.90624C14.9469 4.04061 11.7719 0.949988 7.90624 0.999988C4.04061 1.04999 0.949988 4.22811 0.999988 8.09374C1.05311 11.9594 4.22811 15.05 8.09374 15C11.9594 14.9469 15.0531 11.7719 15 7.90624ZM7.99999 3.49686C8.55311 3.49686 8.99999 3.94374 8.99999 4.49686C8.99999 5.04999 8.55311 5.49686 7.99999 5.49686C7.44686 5.49686 6.99999 5.04999 6.99999 4.49686C6.99999 3.94374 7.44686 3.49686 7.99999 3.49686ZM9.37499 12.3437H6.62499V12H7.31249V6.99999H6.62499V6.62499H8.68749V12H9.37499V12.3437Z" fill="white"/>
</svg>
