<svg width="22" height="22" viewBox="0 0 22 22" fill="none" xmlns="http://www.w3.org/2000/svg">
<path d="M4.8125 17.1875C3.78125 17.1875 2.81875 16.8437 2.0625 16.2937V17.1875C2.0625 18.3562 2.95625 19.25 4.125 19.25C4.125 19.6625 4.4 19.9375 4.8125 19.9375C5.225 19.9375 5.5 19.6625 5.5 19.25H16.5C16.5 19.6625 16.775 19.9375 17.1875 19.9375C17.6 19.9375 17.875 19.6625 17.875 19.25C19.0438 19.25 19.9375 18.3562 19.9375 17.1875V16.2937C19.1812 16.8437 18.2188 17.1875 17.1875 17.1875H4.8125Z" fill="#7E38B7"/>
<path d="M18.5625 4.8125H14.4375V4.125C14.4375 2.95625 13.5438 2.0625 12.375 2.0625H9.625C8.45625 2.0625 7.5625 2.95625 7.5625 4.125V4.8125H3.4375C2.26875 4.8125 1.375 5.70625 1.375 6.875V12.375C1.375 14.3 2.8875 15.8125 4.8125 15.8125H8.3875C8.31875 15.6062 8.25 15.4 8.25 15.125V13.0625C8.25 12.65 8.525 12.375 8.9375 12.375H13.0625C13.475 12.375 13.75 12.65 13.75 13.0625V15.125C13.75 15.4 13.6812 15.6062 13.6125 15.8125H17.1875C19.1125 15.8125 20.625 14.3 20.625 12.375V6.875C20.625 5.70625 19.7313 4.8125 18.5625 4.8125ZM8.9375 4.125C8.9375 3.7125 9.2125 3.4375 9.625 3.4375H12.375C12.7875 3.4375 13.0625 3.7125 13.0625 4.125V4.8125H8.9375V4.125Z" fill="#7E38B7"/>
</svg>
