<svg width="24" height="24" viewBox="0 0 24 24" fill="none" xmlns="http://www.w3.org/2000/svg">
<path d="M21.3329 15.8622C21.3329 18.4196 19.2796 20.4912 16.7222 20.5004H16.713H7.62906C5.08078 20.5004 3 18.4379 3 15.8805V15.8713C3 15.8713 3.0055 11.8143 3.01283 9.77381C3.01375 9.39065 3.45374 9.17615 3.75348 9.41448C5.93143 11.1424 9.82626 14.2929 9.87484 14.3341C10.5257 14.8557 11.3506 15.1499 12.194 15.1499C13.0373 15.1499 13.8622 14.8557 14.5131 14.324C14.5616 14.292 18.3694 11.2359 20.5803 9.47956C20.881 9.24032 21.3228 9.45481 21.3237 9.83706C21.3329 11.8619 21.3329 15.8622 21.3329 15.8622Z" fill="white"/>
<path d="M20.8526 6.45111C20.0588 4.95514 18.4969 4 16.7772 4H7.62913C5.9095 4 4.34754 4.95514 3.55372 6.45111C3.37589 6.78568 3.46022 7.20276 3.7563 7.43925L10.5624 12.8832C11.039 13.2682 11.6165 13.4598 12.194 13.4598C12.1977 13.4598 12.2004 13.4598 12.2032 13.4598C12.2059 13.4598 12.2096 13.4598 12.2124 13.4598C12.7898 13.4598 13.3673 13.2682 13.844 12.8832L20.6501 7.43925C20.9461 7.20276 21.0305 6.78568 20.8526 6.45111Z" fill="white"/>
</svg>
