<svg width="24" height="24" viewBox="0 0 24 24" fill="none" xmlns="http://www.w3.org/2000/svg">
<path d="M16.3333 7H5.66667C4.2 7 3 8.2 3 9.66667V16.3333C3 17.8 4.2 19 5.66667 19H16.3333C17.8 19 19 17.8 19 16.3333V9.66667C19 8.2 17.8 7 16.3333 7ZM17.4 10.8667L12.1333 14.4C11.8 14.6 11.4 14.7333 11 14.7333C10.6 14.7333 10.2 14.6 9.86667 14.4L4.6 10.8667C4.33333 10.6667 4.26667 10.2667 4.46667 9.93333C4.66667 9.66667 5.06667 9.6 5.4 9.8L10.6667 13.3333C10.8667 13.4667 11.2 13.4667 11.4 13.3333L16.6667 9.8C17 9.6 17.4 9.66667 17.6 10C17.7333 10.2667 17.6667 10.6667 17.4 10.8667Z" fill="#7E38B7"/>
</svg>
