<svg width="24" height="24" viewBox="0 0 24 24" fill="none" xmlns="http://www.w3.org/2000/svg">
<path d="M19.8984 10.1484H19.1859C18.6047 10.1484 18.1172 9.64688 18.1172 9.05156C18.1172 8.75156 18.2437 8.47969 18.4688 8.27813L18.9281 7.82812C19.3828 7.37813 19.3828 6.64219 18.9281 6.19219L17.8828 5.15625C17.6766 4.95 17.3719 4.82812 17.0625 4.82812C16.7531 4.82812 16.4531 4.95 16.2422 5.15625L15.8016 5.59688C15.5906 5.83125 15.3094 5.95781 15.0047 5.95781C14.4047 5.95781 13.9031 5.47031 13.9031 4.89375V4.17656C13.9031 3.54375 13.3922 3 12.7547 3H11.3297C10.6922 3 10.1859 3.53906 10.1859 4.17656V4.88906C10.1859 5.46563 9.68438 5.95312 9.08438 5.95312C8.78438 5.95312 8.50781 5.82656 8.30625 5.60625L7.85156 5.15625C7.64531 4.94531 7.34062 4.82812 7.03125 4.82812C6.72187 4.82812 6.42188 4.95 6.21094 5.15625L5.15625 6.1875C4.70625 6.6375 4.70625 7.37344 5.15625 7.81875L5.59688 8.25937C5.83125 8.47031 5.9625 8.75156 5.9625 9.05156C5.9625 9.65156 5.475 10.1484 4.89375 10.1484H4.18125C3.53906 10.1484 3 10.65 3 11.2875V12V12.7125C3 13.3453 3.53906 13.8516 4.18125 13.8516H4.89375C5.475 13.8516 5.9625 14.3531 5.9625 14.9484C5.9625 15.2484 5.83125 15.5297 5.59688 15.7406L5.15625 16.1766C4.70625 16.6266 4.70625 17.3625 5.15625 17.8078L6.20156 18.8484C6.40781 19.0594 6.7125 19.1766 7.02188 19.1766C7.33125 19.1766 7.63125 19.0547 7.84219 18.8484L8.29688 18.3984C8.49375 18.1781 8.775 18.0516 9.075 18.0516C9.675 18.0516 10.1766 18.5391 10.1766 19.1156V19.8281C10.1766 20.4609 10.6828 21.0047 11.325 21.0047H12.75C13.3875 21.0047 13.8937 20.4656 13.8937 19.8281V19.1156C13.8937 18.5391 14.3953 18.0516 14.9953 18.0516C15.2953 18.0516 15.5766 18.1828 15.7922 18.4125L16.2328 18.8531C16.4437 19.0594 16.7437 19.1813 17.0531 19.1813C17.3625 19.1813 17.6625 19.0594 17.8734 18.8531L18.9188 17.8125C19.3687 17.3625 19.3687 16.6266 18.9188 16.1766L18.4594 15.7266C18.2344 15.525 18.1078 15.2484 18.1078 14.9531C18.1078 14.3531 18.5953 13.8563 19.1766 13.8563H19.8891C20.5266 13.8563 20.9813 13.3547 20.9813 12.7172V12V11.2875C20.9906 10.65 20.5359 10.1484 19.8984 10.1484ZM15.7875 12C15.7875 14.0672 14.1141 15.75 12.0375 15.75C9.96094 15.75 8.2875 14.0672 8.2875 12C8.2875 9.93281 9.96094 8.25 12.0375 8.25C14.1141 8.25 15.7875 9.93281 15.7875 12Z" fill="#7E38B7"/>
</svg>
